<svg viewBox="0 0 477 521" xmlns="http://www.w3.org/2000/svg"><g style="display:inline"><path d="M234.48 0c-3.12 1-5.953 2.476-8.5 4.43-.08.066-2.454 2.227-7.12 6.48C107.268 112.786 102.446 121.215 7.59 207.83c-3.907 3.533-6.437 7.36-7.59 11.48v6.3c.827 3.853 2.767 7.043 5.82 9.57 3.81 3.15 7.52 2.83 12.1 2.83 11.227.008 22.688.74 33.75.43a.99.99 0 0 1 1.34.93c1.151 61.18.143 122.202-.04 183.37-.06 15.176 7.216 20.266 7.596 19.78 54.507 19.425 289.202 5.325 334.184 6.27 1.113.026 4.997-.33 11.65-1.07a7.42 7.42 0 0 0 1.81-.43c12.36-4.62 15.8-15.22 15.79-27.54-.04-31.133-.04-91.514 0-181.14 0-.293.237-.53.53-.53 11.026-.06 22.36-.013 34 .14 3.605.063 6.912-.218 10.15-1.83 6.943-3.935 8.655-12.187 6.81-19.48-.7-2.35-3.12-6.1-4.64-7.52-33.203-29.963-46.055-45.623-68.09-63.66-1.438-32.839-.245-65.7-.88-98.54-.066-3.447-.464-5.853-1.19-7.22-1.898-3.249-5.239-4.438-8.71-5.26-4.951-.577-18.216-.71-21.64-.6-4.638.119-10.694-.15-16.092-.14-5.398.01-10.14.3-12.148 1.54-4.51 3.086-6.1 5.46-6.1 10.24.564 36.324.762 9.898-.12 37.23-29.757-24.496-57.489-52.931-85.83-79.28-2.02-1.894-4.71-3.127-8.07-3.7z"/><path d="M234.48 0c-3.12 1-5.953 2.476-8.5 4.43-.08.066-2.454 2.227-7.12 6.48C107.268 112.786 102.446 121.215 7.59 207.83c-3.907 3.533-6.437 7.36-7.59 11.48v6.3c.827 3.853 2.767 7.043 5.82 9.57 3.81 3.15 7.52 2.83 12.1 2.83 11.227.008 22.688.74 33.75.43a.99.99 0 0 1 1.34.93c1.151 61.18.143 122.202-.04 183.37-.06 15.176 7.216 20.266 7.596 19.78 54.507 19.425 289.202 5.325 334.184 6.27 1.113.026 4.997-.33 11.65-1.07a7.42 7.42 0 0 0 1.81-.43c12.36-4.62 15.8-15.22 15.79-27.54-.04-31.133-.04-91.514 0-181.14 0-.293.237-.53.53-.53 11.026-.06 22.36-.013 34 .14 3.605.063 6.912-.218 10.15-1.83 6.943-3.935 8.655-12.187 6.81-19.48-.7-2.35-3.12-6.1-4.64-7.52-33.203-29.963-46.055-45.623-68.09-63.66-1.438-32.839-.245-65.7-.88-98.54-.066-3.447-.464-5.853-1.19-7.22-1.898-3.249-5.239-4.438-8.71-5.26-4.951-.577-18.216-.71-21.64-.6-4.638.119-10.694-.15-16.092-.14-5.398.01-10.14.3-12.148 1.54-4.51 3.086-6.1 5.46-6.1 10.24.564 36.324.762 9.898-.12 37.23-29.757-24.496-57.489-52.931-85.83-79.28-2.02-1.894-4.71-3.127-8.07-3.7z"/><path style="display:inline" d="M234.48 0c-3.12 1-5.953 2.476-8.5 4.43-.08.066-2.454 2.227-7.12 6.48C107.268 112.786 102.446 121.215 7.59 207.83c-3.907 3.533-6.437 7.36-7.59 11.48v6.3c.827 3.853 2.767 7.043 5.82 9.57 3.81 3.15 7.52 2.83 12.1 2.83 11.227.008 22.688.74 33.75.43a.99.99 0 0 1 1.34.93c1.151 61.18.143 122.202-.04 183.37-.06 15.176 7.216 20.266 7.596 19.78 54.507 19.425 289.202 5.325 334.184 6.27 1.113.026 4.997-.33 11.65-1.07a7.42 7.42 0 0 0 1.81-.43c12.36-4.62 15.8-15.22 15.79-27.54-.04-31.133-.04-91.514 0-181.14 0-.293.237-.53.53-.53 11.026-.06 22.36-.013 34 .14 3.605.063 6.912-.218 10.15-1.83 6.943-3.935 8.655-12.187 6.81-19.48-.7-2.35-3.12-6.1-4.64-7.52-33.203-29.963-46.055-45.623-68.09-63.66-1.438-32.839-.245-65.7-.88-98.54-.066-3.447-.464-5.853-1.19-7.22-1.898-3.249-5.239-4.438-8.71-5.26-4.951-.577-18.216-.71-21.64-.6-4.638.119-10.694-.15-16.092-.14-5.398.01-10.14.3-12.148 1.54-4.51 3.086-6.1 5.46-6.1 10.24.564 36.324.762 9.898-.12 37.23-29.757-24.496-57.489-52.931-85.83-79.28-2.02-1.894-4.71-3.127-8.07-3.7z"/></g><g style="display:inline" fill="#ff6e1d"><path d="M303.69 72.21c-6.47 9.74-14.29 20.35-19.81 28.5-4.693 6.933-9.183 13.087-13.47 18.46-.893 1.12-5.62 7.433-14.18 18.94-10.99 14.77-22.57 29.03-33.51 43.13-8.5 10.96-14.427 18.427-17.78 22.4-.58.693-3.67 4.623-9.27 11.79-10.18 13.04-21.043 25.007-32.59 35.9a1844.136 1844.136 0 0 0-15.32 14.68C88.818 322.959 28.8 379.764 18.38 385.22c25.366-38.218 66.027-93.66 77.83-108.32 3.747-4.553 6.903-8.513 9.47-11.88 12.9-16.907 28.237-36.02 46.01-57.34 3.41-4.09 6.48-7.7 10.24-11.43 26.047-25.813 44.573-43.893 55.58-54.24 18.12-17.03 38.08-35.81 53.39-49.61 12.4-11.173 44.81-41.007 47.29-42.13-1.659 5.649-11.887 18.253-14.5 21.94zM421.11 78.11a476.476 476.476 0 0 0-19.72 25.74c-26.733 33.813-45.447 57.28-56.14 70.4-13.7 16.8-34.057 40.947-61.07 72.44-3.88 4.513-8.397 9.91-13.55 16.19-3.033 3.68-9.603 11.307-19.71 22.88-15.223 15.947-30.671 31.813-46.75 46.92C147.939 390.53 4.903 519.195 3.1 520.41c41.96-63.988 94.475-125.786 142.59-184.94 9.78-11.947 21.5-25.923 35.16-41.93 18.187-21.313 30.08-35.157 35.68-41.53 3.487-3.967 11.1-11.68 22.84-23.14 29.676-28.485 58.971-57.38 88.87-85.63 66.034-61.253 72.438-67.07 74.69-69.25 30.797-26.153 53.25-47.945 58.6-50.13.377-.155 2.052.691-40.42 54.25zM433.96 176.32c-10.714 15.29-21.93 30.839-47.78 64.66-11.87 15.73-18.85 25.36-30.39 39.63-14.2 17.53-28.25 35.56-41.45 52.06-5.6 7.01-10.56 11.59-17.51 18.24-24.786 24.55-49.995 48.675-75.45 72.53-17.084 17.169-73.504 67.08-74.59 66.76 6.354-13.823 18.436-28.531 27.37-41.8a2701.818 2701.818 0 0 1 31.16-41.62c4.1-5.373 10.047-13.193 17.84-23.46 18.75-24.7 35.61-45.21 59.87-74.53 1.46-1.767 8.287-8.55 20.48-20.35 15.39-14.91 34.13-34.05 49.51-48.1 12.74-11.64 24.41-23.58 36.39-33.94.853-.733 14.043-12.627 39.57-35.68.415-.506 17.55-17.072 20.8-18.1.89-.279-14.91 22.752-15.82 23.7z" style="display:inline"/></g></svg>